# xmcd
#
# Track frame offsets: 
#        150
#        12727
#        24720
#        43073
#        61595
#        77251
#        92809
#        108207
#        123483
#        137143
#        157052
#        175201
#        196799
#
# Disc length: 3787 seconds
#
# Revision: 1
# Processed by: cddbd v1.5.2PL0 Copyright (c) Steve Scherf et al.
# Submitted via: ExactAudioCopy v0.99pb4
#
DISCID=a50ec90d
DTITLE=Johnnie Taylor - Super Hits
DYEAR=1983
DGENRE=Soul
TTITLE0=Who's Making Love
TTITLE1=Take Care Of Your Homework
TTITLE2=Testify
TTITLE3=Love Bones
TTITLE4=Steal Away
TTITLE5=Cheaper To Keep Her
TTITLE6=I Am Somebody (Part1)
TTITLE7=I Am Somebody (Part 2)
TTITLE8=Jody's Got Your Girl And Gone
TTITLE9=I Believe In You
TTITLE10=We're Getting Careless With Our Love
TTITLE11=I Could Never Be President
TTITLE12=Multimedia-Track
EXTD=© 2001\nLabel: Stax Records (Fantasy, Inc.]\nSCD24 8520-2\n24 BIT
EXTD=Remastered
EXTT0=
EXTT1=
EXTT2=
EXTT3=
EXTT4=
EXTT5=
EXTT6=
EXTT7=
EXTT8=
EXTT9=
EXTT10=
EXTT11=
EXTT12=video, biography and pictures
PLAYORDER=
